<?xml version="1.0" encoding="UTF-8"?>
<svg viewBox="0 0 389.95877 434.87369" xmlns="http://www.w3.org/2000/svg" xmlns:xlink="http://www.w3.org/1999/xlink">
 <defs>
  <filter id="m">
   <feGaussianBlur stdDeviation="5.0752"/>
  </filter>
  <linearGradient id="a">
   <stop stop-color="#fff" offset="0"/>
   <stop stop-color="#333" offset="1"/>
  </linearGradient>
  <radialGradient id="l" cx="-247.41" cy="4586.6" r="145.54" gradientUnits="userSpaceOnUse" xlink:href="#a"/>
  <radialGradient id="k" cx="50.468" cy="33.609" r="73.91" gradientTransform="matrix(2.1652 0 0 1.8525 -58.807 -18.039)" gradientUnits="userSpaceOnUse" xlink:href="#a"/>
  <radialGradient id="j" cx="10.632" cy="4.8512" r="218.99" gradientUnits="userSpaceOnUse" xlink:href="#a"/>
  <radialGradient id="i" cx="-117.85" cy="-76.413" r="36.498" gradientTransform="matrix(2.7307 0 0 3.5546 437.67 402.3)" gradientUnits="userSpaceOnUse" xlink:href="#a"/>
  <radialGradient id="h" cx="-122.88" cy="63.24" r="36.974" gradientTransform="matrix(3.6809 .9863 -.69495 2.5936 689 226.84)" gradientUnits="userSpaceOnUse" xlink:href="#a"/>
  <radialGradient id="g" cx="43.501" cy="27.594" r="53.948" gradientTransform="matrix(2.4148 0 0 1.1031 145.21 287.37)" gradientUnits="userSpaceOnUse" xlink:href="#a"/>
  <radialGradient id="f" cx="163.8" cy="-.28554" r="12.521" gradientTransform="matrix(3.1107 .83352 -3.7344 13.937 -113.09 65.935)" gradientUnits="userSpaceOnUse" xlink:href="#a"/>
  <radialGradient id="e" cx="34.894" cy="-109.28" r="74.099" gradientTransform="matrix(17.756 0 0 15.02 -602.43 1540.7)" gradientUnits="userSpaceOnUse" xlink:href="#a"/>
  <radialGradient id="d" cx="-55.27" cy="-95.079" r="66.516" gradientTransform="matrix(3.6811 0 0 3.6318 148.18 250.62)" gradientUnits="userSpaceOnUse" xlink:href="#a"/>
  <radialGradient id="c" cx="112.15" cy="-12.577" r="55.853" gradientTransform="matrix(4.5825 0 0 6.3264 -403.22 19.377)" gradientUnits="userSpaceOnUse" xlink:href="#a"/>
  <radialGradient id="b" cx="59.44" cy="-112.6" r="53.493" gradientTransform="matrix(4.3031 1.153 -.51831 1.9343 -25.257 196.96)" gradientUnits="userSpaceOnUse" xlink:href="#a"/>
 </defs>
 <g transform="translate(193.9 195.32)">
  <path transform="matrix(.8269 0 0 .25638 230.26 -1024.8)" d="m-61.429 4703.8c0 119.14-96.579 215.71-215.71 215.71s-215.71-96.579-215.71-215.71 96.579-215.71 215.71-215.71 215.71 96.579 215.71 215.71z" fill="#4d4d4d" filter="url(#m)" opacity=".5"/>
  <path transform="matrix(.90361 0 0 .91717 251.52 -4311.6)" d="m-61.429 4703.8c0 119.14-96.579 215.71-215.71 215.71s-215.71-96.579-215.71-215.71 96.579-215.71 215.71-215.71 215.71 96.579 215.71 215.71z" fill="url(#l)"/>
  <path d="m-18.625-61.688c-7.5106 1.1366-10.403 9.8465-15.594 14.531-10.729 14.158-21.221 28.634-30.438 43.844-2.6809 11.691 9.4053 18.89 14.531 27.781 9.1318 12.959 16.611 27.742 29.812 36.906 19.541 1.3513 36.674-10.432 55.265-14.649 7.6819-2.6209 19.195-5.0175 19.891-14.976 1.7052-12.691-0.54056-25.537 0.67488-38.281-0.08602-11.014 1.1977-22.854-3.6124-32.906-9.5592-8.3967-23.463-6.8108-34.281-12.75-11.819-4.361-23.469-10.003-36.25-9.5z"/>
  <path d="m53.094 43.875c-24.45 7.5756-50.089 12.647-72.594 25.438-9.9188 18.761-15.593 39.718-19.656 60.312 3.1439 11.184 16.588 14.158 24.039 21.958 9.8997 7.6223 19.979 16.841 32.773 18.73 24.473-7.2655 49.797-13.147 72.375-25.562 8.1334-16.39 11.755-34.806 18.125-51.906 1.7214-6.7924-0.98468-14.403-7.3882-17.745-13.539-11.218-28.037-21.553-43.049-30.599-1.4902-0.44672-3.0676-0.75714-4.625-0.625z" fill="url(#k)"/>
  <path d="m-128.06 0.84375c-8.0476 0.22995-14.683 7.2724-15.031 15.281-5.2758 16.986-14.756 33.755-13.625 51.906 6.5284 14.551 18.481 25.657 26.734 39.152 6.4898 8.4506 12.577 18.881 22.391 23.661 18.191 1.3703 36.533 0.83541 54.719 0.34375 7.8392-1.2305 12.825-8.2471 14.018-15.666 5.3533-15.335 11.583-30.858 14.076-46.834-2.7128-14.928-16.217-24.233-23.094-37.156-7.7973-11.119-15.185-23.242-27.188-30.156-17.655-0.92884-35.34 0.0016-53-0.53125z" fill="url(#j)"/>
  <path d="m-100.41-131.66c-8.5116 0.11015-16.702 4.4882-20.205 12.378-13.289 17.577-28.251 34.388-36.889 54.935 2.9873 20.202 11.207 39.128 18.125 58.156 8.3418 9.3435 21.861 3.6849 32.688 5.2188 12.783 0.59323 26.338 1.587 38.188-3.9375 16.175-20.149 33.083-40.222 44.031-63.75-2.9816-17.091-10.362-33.016-14.906-49.688-2.5076-7.3193-9.0823-15.041-17.625-13.097-14.468 0.0279-28.943-0.33864-43.406-0.21571z" fill="url(#d)"/>
  <path d="m13.406-169.88c-16.391 6.9021-29.348 19.668-43.781 29.719-6.0204 4.2719-11.119 11.678-7.875 19.156 3.8664 12.19 8.7103 24.134 11.673 36.673 2.4606 9.5937 8.2375 19.567 18.795 21.514 13.66 3.9336 27.217 8.2318 40.469 13.562 9.092 2.9154 19.394 6.1808 28.724 2.9866 15.992-11.617 33.804-21.759 46.964-36.455 2.8602-11.198-6.0487-21.002-7.2188-31.938-3.6918-11.324-6.0708-24.637-15.429-32.846-21.75-10.383-45.437-15.844-68.508-22.685-1.2662-0.0817-2.651-0.34933-3.8125 0.3125z" fill="url(#e)"/>
  <path d="m110.91-77.281c-8.7377 2.9822-15.045 10.195-23.156 14.531-10.487 7.1344-21.077 14.494-28.688 24.719-3.175 24.997-2.7128 50.68 0.1875 75.656 7.2988 14.342 23.925 19.031 35.062 29.719 7.1326 6.1413 18.194 13.712 27.25 6.875 10.031-7.686 20.581-14.653 30.984-21.948 7.4524-6.0095 16.688-13.178 15.046-23.98 1.066-23.004 2.2133-46.363-2.0929-69.071-12.914-13.149-29.679-22.101-44.031-33.438-3.2996-1.7699-6.7227-3.248-10.562-3.0625z" fill="url(#c)"/>
  <path transform="translate(-233.71 -197.66)" d="m357.03 50.281c-0.66507-0.0032-1.3067 0.0065-1.9688 0.03125-7.948 0.29321-19.676-1.7588-23.938 6.7188-0.44541 15.915 8.8418 29.971 11.406 45.312 4.2331 13.06 15.475 21.719 26.562 28.75 9.2012 7.0789 19.367 17.062 31.75 15.812 8.3061-4.8178 8.4598-16.353 12.375-24.375 0.0785-0.55028 0.0986-1.1067 0.15625-1.6562-11.66-26.992-29.048-50.848-50.656-69.938-1.846-0.48988-3.7779-0.64704-5.6875-0.65625z"/>
  <path transform="translate(-233.71 -197.66)" d="m216.31 3.2812c-29.94 2.8607-57.923 12.588-82.375 27.625-5.2789 8.9304-9.1346 19.458-4.875 29.375 10.694 8.041 24.728 1.5008 36.844 3.9688 12.603 0.92949 27.028 0.70524 36.375-9.0625 12.161-9.1662 27.497-15.699 35.062-29.594 0.65706-9.7529-10.412-13.951-16.531-19.344-1.4125-1.0558-2.9198-2.1031-4.5-2.9688z"/>
  <path transform="translate(-233.71 -197.66)" d="m67.125 139.41c-0.85619 0.058-1.6755 0.31374-2.4375 0.84375-6.5935 2.7989-14.014 6.7967-19.094 12.375-3.7106 15.248-5.7188 31.182-5.7188 47.594 0 13.935 1.4251 27.535 4.125 40.656 3.5735 4.5263 8.9272 7.916 13.531 11.219 5.1479 3.265 13.897 5.3738 17.156-1.4688 7.6724-11.418 7.8651-25.946 14.281-38.031 3.816-10.253 4.148-21.873-1.25-31.5-4.7924-14.155-6.1268-30.954-18-41.375-0.84446-0.23078-1.7376-0.37051-2.5938-0.3125z"/>
  <path transform="translate(-233.71 -197.66)" d="m177.41 330.78c-1.7531 0.0123-3.5258 0.16021-5.3125 0.46875-8.6062 0.23451-17.205-0.53111-25.812-0.3125-6.9083 0.64202-17.333-0.26923-19.188 8.5312-1.9009 8.1555 2.8323 15.596 5.25 23.094 1.2451 2.6152 2.7555 5.7171 4.5312 8.75 23.438 13.85 49.982 22.907 78.312 25.781 8.9167-5.6269 20.6-15.999 22.531-25.969-3.7312-13.085-19.016-16.731-27.625-25.656-9.0763-7.9936-20.416-14.773-32.688-14.688z"/>
  <path transform="translate(-233.71 -197.66)" d="m397.25 246.59c-0.59326 0.0387-1.1698 0.21573-1.6875 0.625-17.505 8.3916-32.472 21.007-46.906 33.719-7.3941 11.997-9.0587 26.446-14.656 39.281-2.2106 7.0788-5.2479 17.913 2.4062 22.75 7.7754 3.3676 16.841 1.3195 24.938 2.0312 3.1928-0.69316 6.1983-1.5811 9.0625-2.6562 19.429-19.104 34.933-42.27 45.219-68.156-1.9256-9.8135-8.0897-21.196-15.406-27.062-0.93858-0.27509-1.98-0.59569-2.9688-0.53125z"/>
  <path transform="translate(-233.71 -197.66)" d="m239.69 2.4375c-4.9691 5.0451-3.505 16.604 4.4375 18.281 26.512 11.469 54.499 19.418 82.344 27.062 6.6638 1.3519 17.273-0.84093 17.344-9.125-0.0511-0.98434-0.19956-1.8958-0.4375-2.75-3e-3 -0.0095 3e-3 -0.02177 0-0.03125-29.771-20.304-65.351-32.482-103.69-33.438z" fill="url(#b)"/>
  <path transform="translate(-233.71 -197.66)" d="m116.72 42.812c-29.782 23.055-52.808 54.625-65.594 91.125 5.056 6.2564 16.863 3.6835 19.875-3.4375 19.186-22.14 35.518-46.647 51.031-71.438 2.4927-5.5617 0.47785-14.42-5.3125-16.25z" fill="url(#i)"/>
  <path transform="translate(-233.71 -197.66)" d="m57.844 257.34c-0.46182-0.0196-0.91044-3e-3 -1.375 0.0312-3.3146 0.58701-5.4849 2.7096-6.625 5.4375 3.513 10.702 7.9145 20.98 13.094 30.781 12.816 18.98 26.041 37.79 41.906 54.094 0.90419 0.8216 1.8307 1.6016 2.75 2.4062 5.9482 3.3321 15.474 0.60375 15.219-7.25 0.26069-11.273-9.3413-19.341-14.406-28.594-13.195-18.293-26.355-36.766-41.562-53.438-2.6166-1.911-5.7673-3.3314-9-3.4688z" fill="url(#h)"/>
  <path transform="translate(-233.71 -197.66)" d="m334.69 346.47c-0.41905-0.0226-0.83232-5e-3 -1.25 0.0312-28.888 4.0015-55.528 16.865-83.312 25.25-6.9876 2.7696-16.961 9.672-13.344 18.219 1.857 2.9642 5.0664 5.714 8.7812 7.8125 36.111-1.9924 69.592-13.973 97.844-33.25 1.2797-7.0997 0.0605-15.4-5.0938-17.156-1.1164-0.50409-2.3678-0.83834-3.625-0.90625z" fill="url(#g)"/>
  <path transform="translate(-233.71 -197.66)" d="m415.19 140.97c-10.173 2.0154-11.215 14.848-11.094 23.312-0.28602 26.402-1.7376 53.07 1.8438 79.281 1.6128 6.8027 10.388 13.016 16.406 7.4062 0.44721-0.39956 0.83658-0.82052 1.2188-1.25 2.0514-8.0813 3.6198-16.335 4.6562-24.781 8.5e-4 -0.0315-8.9e-4 -0.0623 0-0.0937 0.0361-1.2709 0.11393-2.5155 0.25-3.7188 0.0364-14.929 0.32866-29.979-0.1875-44.938-1.347-11.285-3.6121-22.29-6.75-32.906-1.7252-1.5078-3.8287-2.4491-6.3438-2.3125z" fill="url(#f)"/>
 </g>
</svg>
